<svg width="400" height="435" viewBox="0 0 400 435" fill="none" xmlns="http://www.w3.org/2000/svg">
<path d="M196.045 2.79239C199.121 1.05529 202.886 1.07033 205.948 2.83197L362.066 92.6397C365.168 94.4239 367.08 97.7295 367.08 101.308V101.502C367.08 105.085 365.162 108.395 362.054 110.177L205.971 199.671C202.896 201.434 199.117 201.437 196.039 199.68L37.9534 109.434C34.8356 107.654 32.9111 104.338 32.9111 100.748C32.9111 97.1409 34.8535 93.8116 37.9942 92.0382L196.045 2.79239Z" fill="#D28437"/>
<path d="M160.501 267.931C160.501 265.053 158.954 262.396 156.451 260.975L11.9502 178.923C6.617 175.895 -0.00012207 179.747 -3.05176e-05 185.88L0.00210571 344.691C0.00215149 347.57 1.54869 350.226 4.05188 351.648L148.552 433.699C153.885 436.727 160.502 432.875 160.502 426.742L160.501 267.931Z" fill="#812F29"/>
<path d="M239.501 267.436C239.501 264.555 241.051 261.896 243.558 260.475L388.057 178.612C393.39 175.591 400 179.443 400 185.573V344.691C400 347.57 398.453 350.226 395.95 351.648L251.452 433.699C246.119 436.727 239.501 432.875 239.501 426.742V267.436Z" fill="#336166"/>
</svg>
