<svg width="400" height="435" viewBox="0 0 400 435" fill="none" xmlns="http://www.w3.org/2000/svg">
<path d="M196.044 2.8024C199.121 1.0653 202.885 1.08034 205.948 2.84198L362.066 92.6497C365.168 94.4339 367.079 97.7395 367.079 101.318V101.512C367.079 105.095 365.162 108.405 362.054 110.187L205.971 199.681C202.896 201.444 199.117 201.447 196.039 199.69L37.9532 109.444C34.8354 107.664 32.9109 104.348 32.9109 100.758C32.9109 97.1509 34.8532 93.8217 37.994 92.0482L196.044 2.8024Z" fill="white"/>
<path d="M160.501 267.941C160.501 265.063 158.954 262.406 156.451 260.985L11.9504 178.933C6.61725 175.905 0.00012207 179.757 0.000213623 185.89L0.00234985 344.701C0.00239563 347.58 1.54893 350.236 4.05212 351.658L148.552 433.709C153.885 436.737 160.502 432.885 160.502 426.752L160.501 267.941Z" fill="white"/>
<path d="M239.501 267.446C239.501 264.565 241.051 261.906 243.558 260.485L388.057 178.622C393.39 175.601 400 179.453 400 185.583V344.701C400 347.58 398.453 350.236 395.95 351.658L251.452 433.709C246.119 436.737 239.501 432.885 239.501 426.752V267.446Z" fill="white"/>
</svg>
