<svg width="400" height="436" viewBox="0 0 400 436" fill="none" xmlns="http://www.w3.org/2000/svg">
<path d="M196.045 3.29739C199.121 1.56029 202.886 1.57534 205.948 3.33697L362.066 93.1447C365.168 94.9289 367.08 98.2345 367.08 101.813V102.007C367.08 105.59 365.162 108.9 362.054 110.682L205.971 200.176C202.896 201.939 199.117 201.942 196.039 200.185L37.9534 109.939C34.8356 108.159 32.9111 104.843 32.9111 101.253C32.9111 97.6459 34.8535 94.3167 37.9942 92.5432L196.045 3.29739Z" fill="#FF9E3F"/>
<path d="M160.501 268.437C160.501 265.558 158.954 262.901 156.451 261.48L11.9502 179.428C6.617 176.4 -0.00012207 180.252 -3.05176e-05 186.385L0.00210571 345.196C0.00215149 348.075 1.54869 350.731 4.05188 352.153L148.552 434.204C153.885 437.233 160.502 433.38 160.502 427.247L160.501 268.437Z" fill="#FF9E3F"/>
<path d="M239.501 267.941C239.501 265.06 241.051 262.401 243.558 260.981L388.057 179.117C393.39 176.096 400 179.948 400 186.078V345.196C400 348.075 398.453 350.731 395.95 352.153L251.452 434.204C246.119 437.233 239.501 433.38 239.501 427.248V267.941Z" fill="#FF9E3F"/>
</svg>
